<svg width="546" height="151" viewBox="0 0 546 151" fill="none" xmlns="http://www.w3.org/2000/svg">
<rect x="36.2947" y="114.224" width="168" height="30" fill="#934200"/>
<rect x="84.2947" y="78.2242" width="42" height="54" fill="#96E9EA"/>
<rect x="30.2947" y="18.2242" width="168" height="60" fill="#E49901"/>
<rect x="24.2947" y="84.2242" width="54" height="24" fill="#E77F01"/>
<rect x="132.295" y="84.2242" width="60" height="24" fill="#E77F01"/>
<rect x="42.2947" y="78.2242" width="24" height="36" fill="#686777"/>
<rect width="24" height="24" transform="matrix(-1 0 0 1 66.2947 66.2242)" fill="#B2B4BC"/>
<rect width="6" height="12" transform="matrix(-1 0 0 1 60.2947 90.2242)" fill="#B2B4BC"/>
<rect width="6" height="12" transform="matrix(-1 0 0 1 48.2947 90.2242)" fill="#B2B4BC"/>
<rect width="6" height="12" transform="matrix(-1 0 0 1 54.2947 84.2242)" fill="#B2B4BC"/>
<rect x="42.2947" y="26.8585" width="24" height="39.3657" fill="#EEEEF0"/>
<rect x="48.2947" y="63.2242" width="6" height="12" fill="#EEEEF0"/>
<rect x="60.2947" y="63.2242" width="6" height="12" fill="#EEEEF0"/>
<rect x="54.2947" y="57.2242" width="6" height="12" fill="#EEEEF0"/>
<rect x="42.2947" y="6.22424" width="24" height="24" fill="#B2B4BC"/>
<rect x="48.2947" y="30.2242" width="6" height="12" fill="#B2B4BC"/>
<rect x="60.2947" y="30.2242" width="6" height="12" fill="#B2B4BC"/>
<rect x="54.2947" y="24.2242" width="6" height="12" fill="#B2B4BC"/>
<rect x="48.2947" y="12.2242" width="6" height="12" transform="rotate(-90 48.2947 12.2242)" fill="#6A6674"/>
<rect x="54.2947" y="18.2242" width="6" height="12" transform="rotate(-90 54.2947 18.2242)" fill="#6A6674"/>
<rect x="42.2947" y="12.2242" width="6" height="6" fill="#6A6674"/>
<rect x="144.295" y="78.2242" width="24" height="36" fill="#686777"/>
<rect width="24" height="24" transform="matrix(-1 0 0 1 168.295 66.2242)" fill="#B2B4BC"/>
<rect width="6" height="12" transform="matrix(-1 0 0 1 162.295 90.2242)" fill="#B2B4BC"/>
<rect width="6" height="12" transform="matrix(-1 0 0 1 150.295 90.2242)" fill="#B2B4BC"/>
<rect width="6" height="12" transform="matrix(-1 0 0 1 156.295 84.2242)" fill="#B2B4BC"/>
<rect x="144.295" y="26.8585" width="24" height="39.3657" fill="#EEEEF0"/>
<rect x="150.295" y="63.2242" width="6" height="12" fill="#EEEEF0"/>
<rect x="162.295" y="63.2242" width="6" height="12" fill="#EEEEF0"/>
<rect x="156.295" y="57.2242" width="6" height="12" fill="#EEEEF0"/>
<rect x="144.295" y="6.22424" width="24" height="24" fill="#B2B4BC"/>
<rect x="150.295" y="30.2242" width="6" height="12" fill="#B2B4BC"/>
<rect x="162.295" y="30.2242" width="6" height="12" fill="#B2B4BC"/>
<rect x="156.295" y="24.2242" width="6" height="12" fill="#B2B4BC"/>
<rect x="150.295" y="12.2242" width="6" height="12" transform="rotate(-90 150.295 12.2242)" fill="#6A6674"/>
<rect x="156.295" y="18.2242" width="6" height="12" transform="rotate(-90 156.295 18.2242)" fill="#6A6674"/>
<rect x="144.295" y="12.2242" width="6" height="6" fill="#6A6674"/>
<rect x="204.295" y="114.224" width="168.125" height="30" fill="#934200"/>
<rect x="252.295" y="78.2242" width="42" height="54" fill="#E2B436"/>
<rect x="198.295" y="18.2242" width="170.193" height="60" fill="#E49901"/>
<rect x="192.295" y="84.2242" width="54" height="24" fill="#E77F01"/>
<rect x="300.295" y="84.2242" width="66.1252" height="24" fill="#E77F01"/>
<rect x="372.42" y="114.224" width="138" height="30" fill="#934200"/>
<rect x="420.42" y="78.2242" width="42" height="54" fill="#B5DC3A"/>
<rect x="366.42" y="18.2242" width="156" height="60" fill="#E49901"/>
<rect x="360.42" y="84.2242" width="54" height="24" fill="#E77F01"/>
<rect x="468.42" y="84.2242" width="54" height="24" fill="#E77F01"/>
<rect x="18.2947" y="66.2242" width="6" height="12" fill="#B2B4BC"/>
<rect x="18.2947" y="54.2242" width="6" height="6" fill="#B2B4BC"/>
<rect x="18.2947" y="60.2242" width="6" height="6" fill="#EEEEF0"/>
<rect x="72.2947" y="42.2242" width="66" height="6" fill="#AC5603"/>
<rect x="96.2947" y="66.2242" width="18" height="6" fill="#C8F5FF"/>
<rect x="120.295" y="72.2242" width="12" height="6" transform="rotate(90 120.295 72.2242)" fill="#C8F5FF"/>
<rect x="126.295" y="96.2242" width="30" height="6" transform="rotate(90 126.295 96.2242)" fill="#31B9B6"/>
<rect x="96.2947" y="72.2242" width="12" height="6" transform="rotate(90 96.2947 72.2242)" fill="#C8F5FF"/>
<rect x="114.295" y="120.224" width="6" height="6" fill="#31B9B6"/>
<rect x="102.295" y="114.224" width="6" height="6" fill="#C8F5FF"/>
<rect x="24.2947" y="96.2242" width="6" height="12" fill="#E49802"/>
<rect x="102.295" y="126.224" width="18" height="6" fill="#31B9B6"/>
<rect x="30.2947" y="30.2242" width="6" height="12" fill="#F4CC7A"/>
<rect x="174.295" y="30.2242" width="6" height="12" fill="#F4CC7A"/>
<rect x="30.2947" y="48.2242" width="6" height="6" fill="#F4CC7A"/>
<rect x="174.295" y="48.2242" width="6" height="6" fill="#F4CC7A"/>
<rect x="180.295" y="29.9341" width="6" height="6" fill="#F4CC7A"/>
<rect x="348.42" y="29.9341" width="6" height="6" fill="#F4CC7A"/>
<rect x="72.2947" y="90.2242" width="6" height="6" fill="#AC5603"/>
<rect x="30.2947" y="90.2242" width="6" height="6" fill="#AC5603"/>
<rect x="72.2947" y="102.224" width="6" height="6" fill="#AC5603"/>
<rect x="30.2947" y="102.224" width="6" height="6" fill="#AC5603"/>
<rect x="174.295" y="90.2242" width="24" height="6" fill="#AC5603"/>
<rect x="132.295" y="90.2242" width="6" height="6" fill="#AC5603"/>
<rect x="210.295" y="78.2242" width="24" height="36" fill="#686777"/>
<rect width="24" height="24" transform="matrix(-1 0 0 1 234.295 66.2242)" fill="#B2B4BC"/>
<rect width="6" height="12" transform="matrix(-1 0 0 1 228.295 90.2242)" fill="#B2B4BC"/>
<rect width="6" height="12" transform="matrix(-1 0 0 1 216.295 90.2242)" fill="#B2B4BC"/>
<rect width="6" height="12" transform="matrix(-1 0 0 1 222.295 84.2242)" fill="#B2B4BC"/>
<rect x="210.295" y="26.8585" width="24" height="39.3657" fill="#EEEEF0"/>
<rect x="216.295" y="63.2242" width="6" height="12" fill="#EEEEF0"/>
<rect x="228.295" y="63.2242" width="6" height="12" fill="#EEEEF0"/>
<rect x="222.295" y="57.2242" width="6" height="12" fill="#EEEEF0"/>
<rect x="210.295" y="6.22424" width="24" height="24" fill="#B2B4BC"/>
<rect x="216.295" y="30.2242" width="6" height="12" fill="#B2B4BC"/>
<rect x="228.295" y="30.2242" width="6" height="12" fill="#B2B4BC"/>
<rect x="222.295" y="24.2242" width="6" height="12" fill="#B2B4BC"/>
<rect x="216.295" y="12.2242" width="6" height="12" transform="rotate(-90 216.295 12.2242)" fill="#6A6674"/>
<rect x="222.295" y="18.2242" width="6" height="12" transform="rotate(-90 222.295 18.2242)" fill="#6A6674"/>
<rect x="210.295" y="12.2242" width="6" height="6" fill="#6A6674"/>
<rect x="312.295" y="78.2242" width="24" height="36" fill="#686777"/>
<rect width="24" height="24" transform="matrix(-1 0 0 1 336.295 66.2242)" fill="#B2B4BC"/>
<rect width="6" height="12" transform="matrix(-1 0 0 1 330.295 90.2242)" fill="#B2B4BC"/>
<rect width="6" height="12" transform="matrix(-1 0 0 1 318.295 90.2242)" fill="#B2B4BC"/>
<rect width="6" height="12" transform="matrix(-1 0 0 1 324.295 84.2242)" fill="#B2B4BC"/>
<rect x="312.295" y="26.8585" width="24" height="39.3657" fill="#EEEEF0"/>
<rect x="318.295" y="63.2242" width="6" height="12" fill="#EEEEF0"/>
<rect x="330.295" y="63.2242" width="6" height="12" fill="#EEEEF0"/>
<rect x="324.295" y="57.2242" width="6" height="12" fill="#EEEEF0"/>
<rect x="312.295" y="6.22424" width="24" height="24" fill="#B2B4BC"/>
<rect x="318.295" y="30.2242" width="6" height="12" fill="#B2B4BC"/>
<rect x="330.295" y="30.2242" width="6" height="12" fill="#B2B4BC"/>
<rect x="324.295" y="24.2242" width="6" height="12" fill="#B2B4BC"/>
<rect x="318.295" y="12.2242" width="6" height="12" transform="rotate(-90 318.295 12.2242)" fill="#6A6674"/>
<rect x="324.295" y="18.2242" width="6" height="12" transform="rotate(-90 324.295 18.2242)" fill="#6A6674"/>
<rect x="312.295" y="12.2242" width="6" height="6" fill="#6A6674"/>
<rect x="174.295" y="102.224" width="24" height="6" fill="#AC5603"/>
<rect x="132.295" y="102.224" width="6" height="6" fill="#AC5603"/>
<rect x="72.2947" y="36.2242" width="54" height="6" fill="#F4CC7A"/>
<rect x="72.2947" y="30.2242" width="42" height="6" fill="#F4CC7A"/>
<rect x="72.2947" y="48.2242" width="36" height="6" fill="#F4CC7A"/>
<rect x="240.295" y="42.2242" width="66" height="6" fill="#AC5603"/>
<rect x="264.295" y="66.2242" width="18" height="6" fill="#F5F38E"/>
<rect x="288.295" y="72.2242" width="12" height="6" transform="rotate(90 288.295 72.2242)" fill="#F5F38E"/>
<rect x="294.295" y="96.2242" width="30" height="6" transform="rotate(90 294.295 96.2242)" fill="#C2751D"/>
<rect x="264.295" y="72.2242" width="12" height="6" transform="rotate(90 264.295 72.2242)" fill="#F5F38E"/>
<rect x="282.295" y="120.224" width="6" height="6" fill="#C2751D"/>
<rect x="270.295" y="114.224" width="6" height="6" fill="#F5F38E"/>
<rect x="270.295" y="126.224" width="18" height="6" fill="#C2751D"/>
<rect x="378.42" y="78.2242" width="24" height="36" fill="#686777"/>
<rect width="24" height="24" transform="matrix(-1 0 0 1 402.42 66.2242)" fill="#B2B4BC"/>
<rect width="6" height="12" transform="matrix(-1 0 0 1 396.42 90.2242)" fill="#B2B4BC"/>
<rect width="6" height="12" transform="matrix(-1 0 0 1 384.42 90.2242)" fill="#B2B4BC"/>
<rect width="6" height="12" transform="matrix(-1 0 0 1 390.42 84.2242)" fill="#B2B4BC"/>
<rect x="378.42" y="26.8585" width="24" height="39.3657" fill="#EEEEF0"/>
<rect x="384.42" y="63.2242" width="6" height="12" fill="#EEEEF0"/>
<rect x="396.42" y="63.2242" width="6" height="12" fill="#EEEEF0"/>
<rect x="390.42" y="57.2242" width="6" height="12" fill="#EEEEF0"/>
<rect x="378.42" y="6.22424" width="24" height="24" fill="#B2B4BC"/>
<rect x="384.42" y="30.2242" width="6" height="12" fill="#B2B4BC"/>
<rect x="396.42" y="30.2242" width="6" height="12" fill="#B2B4BC"/>
<rect x="390.42" y="24.2242" width="6" height="12" fill="#B2B4BC"/>
<rect x="384.42" y="12.2242" width="6" height="12" transform="rotate(-90 384.42 12.2242)" fill="#6A6674"/>
<rect x="390.42" y="18.2242" width="6" height="12" transform="rotate(-90 390.42 18.2242)" fill="#6A6674"/>
<rect x="378.42" y="12.2242" width="6" height="6" fill="#6A6674"/>
<rect x="342.295" y="30.2242" width="6" height="12" fill="#F4CC7A"/>
<rect x="480.42" y="78.2242" width="24" height="36" fill="#686777"/>
<rect width="24" height="24" transform="matrix(-1 0 0 1 504.42 66.2242)" fill="#B2B4BC"/>
<rect width="6" height="12" transform="matrix(-1 0 0 1 498.42 90.2242)" fill="#B2B4BC"/>
<rect width="6" height="12" transform="matrix(-1 0 0 1 486.42 90.2242)" fill="#B2B4BC"/>
<rect width="6" height="12" transform="matrix(-1 0 0 1 492.42 84.2242)" fill="#B2B4BC"/>
<rect x="480.42" y="26.8585" width="24" height="39.3657" fill="#EEEEF0"/>
<rect x="486.42" y="63.2242" width="6" height="12" fill="#EEEEF0"/>
<rect x="498.42" y="63.2242" width="6" height="12" fill="#EEEEF0"/>
<rect x="492.42" y="57.2242" width="6" height="12" fill="#EEEEF0"/>
<rect x="480.42" y="6.22424" width="24" height="24" fill="#B2B4BC"/>
<rect x="486.42" y="30.2242" width="6" height="12" fill="#B2B4BC"/>
<rect x="498.42" y="30.2242" width="6" height="12" fill="#B2B4BC"/>
<rect x="492.42" y="24.2242" width="6" height="12" fill="#B2B4BC"/>
<rect x="486.42" y="12.2242" width="6" height="12" transform="rotate(-90 486.42 12.2242)" fill="#6A6674"/>
<rect x="492.42" y="18.2242" width="6" height="12" transform="rotate(-90 492.42 18.2242)" fill="#6A6674"/>
<rect x="480.42" y="12.2242" width="6" height="6" fill="#6A6674"/>
<rect x="342.295" y="48.2242" width="6" height="6" fill="#F4CC7A"/>
<rect x="240.295" y="90.2242" width="6" height="6" fill="#AC5603"/>
<rect x="240.295" y="102.224" width="6" height="6" fill="#AC5603"/>
<rect x="342.295" y="90.2242" width="6" height="6" fill="#AC5603"/>
<rect x="300.295" y="90.2242" width="6" height="6" fill="#AC5603"/>
<rect x="342.295" y="102.224" width="6" height="6" fill="#AC5603"/>
<rect x="300.295" y="102.224" width="6" height="6" fill="#AC5603"/>
<rect x="240.295" y="36.2242" width="54" height="6" fill="#F4CC7A"/>
<rect x="240.295" y="30.2242" width="42" height="6" fill="#F4CC7A"/>
<rect x="240.295" y="48.2242" width="36" height="6" fill="#F4CC7A"/>
<path d="M546 144.224H0V150.224H546V144.224Z" fill="#231E2B"/>
<rect x="408.42" y="42.2242" width="66" height="6" fill="#AC5603"/>
<rect x="432.42" y="66.2242" width="18" height="6" fill="#D8FB6B"/>
<rect x="456.42" y="72.2242" width="12" height="6" transform="rotate(90 456.42 72.2242)" fill="#D8FB6B"/>
<rect x="462.42" y="96.2242" width="30" height="6" transform="rotate(90 462.42 96.2242)" fill="#758F21"/>
<rect x="432.42" y="72.2242" width="12" height="6" transform="rotate(90 432.42 72.2242)" fill="#D8FB6B"/>
<rect x="450.42" y="120.224" width="6" height="6" fill="#758F21"/>
<rect x="438.42" y="114.224" width="6" height="6" fill="#D8FB6B"/>
<rect x="198.295" y="30.2242" width="6" height="12" fill="#F4CC7A"/>
<rect x="438.42" y="126.224" width="18" height="6" fill="#758F21"/>
<rect x="198.295" y="48.2242" width="6" height="6" fill="#F4CC7A"/>
<rect x="366.42" y="30.2242" width="6" height="12" fill="#F4CC7A"/>
<rect x="510.42" y="30.2242" width="6" height="12" fill="#F4CC7A"/>
<rect x="366.42" y="48.2242" width="6" height="6" fill="#F4CC7A"/>
<rect x="510.42" y="48.2242" width="6" height="6" fill="#F4CC7A"/>
<rect x="408.42" y="90.2242" width="6" height="6" fill="#AC5603"/>
<rect x="198.295" y="90.2242" width="6" height="6" fill="#AC5603"/>
<rect x="408.42" y="102.224" width="6" height="6" fill="#AC5603"/>
<rect x="198.295" y="102.224" width="6" height="6" fill="#AC5603"/>
<rect x="510.42" y="90.2242" width="6" height="6" fill="#AC5603"/>
<rect x="468.42" y="90.2242" width="6" height="6" fill="#AC5603"/>
<rect x="510.42" y="102.224" width="6" height="6" fill="#AC5603"/>
<rect x="468.42" y="102.224" width="6" height="6" fill="#AC5603"/>
<rect x="408.42" y="36.2242" width="54" height="6" fill="#F4CC7A"/>
<rect x="408.42" y="30.2242" width="42" height="6" fill="#F4CC7A"/>
<rect x="408.42" y="48.2242" width="36" height="6" fill="#F4CC7A"/>
<rect width="6" height="12" transform="matrix(-1 0 0 1 528.42 66.2242)" fill="#B2B4BC"/>
<rect width="6" height="6" transform="matrix(-1 0 0 1 528.42 54.2242)" fill="#B2B4BC"/>
<rect width="6" height="6" transform="matrix(-1 0 0 1 528.42 60.2242)" fill="#EEEEF0"/>
<rect width="6" height="12" transform="matrix(-1 0 0 1 522.42 96.2242)" fill="#E49802"/>
<rect x="30.2947" y="114.224" width="6" height="30" fill="#231E2B"/>
<rect x="36.2947" y="120.224" width="6" height="30" transform="rotate(-90 36.2947 120.224)" fill="#231E2B"/>
<rect x="18.2947" y="114.224" width="6" height="24" transform="rotate(-90 18.2947 114.224)" fill="#231E2B"/>
<rect x="18.2947" y="54.2242" width="6" height="12" transform="rotate(-90 18.2947 54.2242)" fill="#231E2B"/>
<rect x="30.2947" y="18.2242" width="6" height="12" transform="rotate(-90 30.2947 18.2242)" fill="#231E2B"/>
<rect x="30.2947" y="30.2242" width="6" height="12" transform="rotate(-90 30.2947 30.2242)" fill="#AC5603"/>
<rect x="30.2947" y="48.2242" width="6" height="12" transform="rotate(-90 30.2947 48.2242)" fill="#AC5603"/>
<rect x="168.295" y="48.2242" width="6" height="36" transform="rotate(-90 168.295 48.2242)" fill="#AC5603"/>
<rect x="36.2947" y="12.2242" width="6" height="12" transform="rotate(-90 36.2947 12.2242)" fill="#231E2B"/>
<rect x="48.2947" y="6.22424" width="6" height="12" transform="rotate(-90 48.2947 6.22424)" fill="#231E2B"/>
<rect x="60.2947" y="12.2242" width="6" height="12" transform="rotate(-90 60.2947 12.2242)" fill="#231E2B"/>
<rect x="138.295" y="12.2242" width="6" height="12" transform="rotate(-90 138.295 12.2242)" fill="#231E2B"/>
<rect x="150.295" y="6.22424" width="6" height="12" transform="rotate(-90 150.295 6.22424)" fill="#231E2B"/>
<rect x="162.295" y="12.2242" width="6" height="12" transform="rotate(-90 162.295 12.2242)" fill="#231E2B"/>
<rect x="168.295" y="18.2242" width="6" height="30" transform="rotate(-90 168.295 18.2242)" fill="#231E2B"/>
<rect x="168.295" y="30.2242" width="6" height="36" transform="rotate(-90 168.295 30.2242)" fill="#AC5603"/>
<rect x="66.2947" y="18.2242" width="6" height="78" transform="rotate(-90 66.2947 18.2242)" fill="#231E2B"/>
<rect x="66.2947" y="30.2242" width="6" height="78" transform="rotate(-90 66.2947 30.2242)" fill="#AC5603"/>
<rect x="126.295" y="84.2242" width="6" height="18" transform="rotate(-90 126.295 84.2242)" fill="#231E2B"/>
<rect x="126.295" y="114.224" width="6" height="18" transform="rotate(-90 126.295 114.224)" fill="#231E2B"/>
<rect x="168.295" y="84.2242" width="6" height="36" transform="rotate(-90 168.295 84.2242)" fill="#231E2B"/>
<rect x="168.295" y="114.224" width="6" height="18" transform="rotate(-90 168.295 114.224)" fill="#231E2B"/>
<rect x="90.2947" y="138.224" width="6" height="30" transform="rotate(-90 90.2947 138.224)" fill="#231E2B"/>
<rect x="84.2947" y="132.224" width="6" height="6" transform="rotate(-90 84.2947 132.224)" fill="#231E2B"/>
<rect x="120.295" y="132.224" width="6" height="6" transform="rotate(-90 120.295 132.224)" fill="#231E2B"/>
<rect x="84.2947" y="78.2242" width="6" height="6" transform="rotate(-90 84.2947 78.2242)" fill="#231E2B"/>
<rect x="90.2947" y="90.2242" width="6" height="6" transform="rotate(-90 90.2947 90.2242)" fill="#231E2B"/>
<rect x="114.295" y="90.2242" width="6" height="6" transform="rotate(-90 114.295 90.2242)" fill="#231E2B"/>
<rect x="102.295" y="114.224" width="18" height="6" transform="rotate(-90 102.295 114.224)" fill="#231E2B"/>
<rect x="120.295" y="78.2242" width="6" height="6" transform="rotate(-90 120.295 78.2242)" fill="#231E2B"/>
<rect x="66.2947" y="114.224" width="6" height="18" transform="rotate(-90 66.2947 114.224)" fill="#231E2B"/>
<rect x="96.2947" y="78.2242" width="6" height="18" transform="rotate(-90 96.2947 78.2242)" fill="#231E2B"/>
<rect x="126.295" y="84.2242" width="6" height="42" fill="#231E2B"/>
<rect x="18.2947" y="96.2242" width="6" height="18" fill="#231E2B"/>
<rect x="12.2947" y="54.2242" width="6" height="24" fill="#231E2B"/>
<rect x="138.295" y="114.224" width="6" height="30" fill="#231E2B"/>
<rect x="78.2947" y="84.2242" width="6" height="42" fill="#231E2B"/>
<rect x="66.2947" y="114.224" width="6" height="30" fill="#231E2B"/>
<rect width="6" height="24" transform="matrix(4.37114e-08 -1 -1 -4.37114e-08 528.42 114.224)" fill="#231E2B"/>
<rect width="6" height="24" transform="matrix(4.37114e-08 -1 -1 -4.37114e-08 528.42 84.2242)" fill="#231E2B"/>
<rect width="6" height="12" transform="matrix(4.37114e-08 -1 -1 -4.37114e-08 528.42 54.2242)" fill="#231E2B"/>
<rect width="6" height="18" transform="matrix(-1 0 0 1 528.42 96.2242)" fill="#231E2B"/>
<rect width="6" height="24" transform="matrix(-1 0 0 1 534.42 54.2242)" fill="#231E2B"/>
<rect x="18.2947" y="84.2242" width="6" height="24" transform="rotate(-90 18.2947 84.2242)" fill="#231E2B"/>
<rect x="66.2947" y="84.2242" width="6" height="18" transform="rotate(-90 66.2947 84.2242)" fill="#231E2B"/>
<rect x="24.2947" y="18.2242" width="6" height="78" fill="#231E2B"/>
<rect x="204.295" y="120.224" width="6" height="30" transform="rotate(-90 204.295 120.224)" fill="#231E2B"/>
<rect x="144" y="120.224" width="6" height="30" transform="rotate(-90 144 120.224)" fill="#231E2B"/>
<rect x="186.295" y="114.224" width="6" height="24" transform="rotate(-90 186.295 114.224)" fill="#231E2B"/>
<rect x="198.295" y="18.2242" width="6" height="12" transform="rotate(-90 198.295 18.2242)" fill="#231E2B"/>
<rect x="336.295" y="48.2242" width="6" height="36.1252" transform="rotate(-90 336.295 48.2242)" fill="#AC5603"/>
<rect x="204.295" y="12.2242" width="6" height="12" transform="rotate(-90 204.295 12.2242)" fill="#231E2B"/>
<rect x="216.295" y="6.22424" width="6" height="12" transform="rotate(-90 216.295 6.22424)" fill="#231E2B"/>
<rect x="228.295" y="12.2242" width="6" height="12" transform="rotate(-90 228.295 12.2242)" fill="#231E2B"/>
<rect x="306.295" y="12.2242" width="6" height="12" transform="rotate(-90 306.295 12.2242)" fill="#231E2B"/>
<rect x="318.295" y="6.22424" width="6" height="12" transform="rotate(-90 318.295 6.22424)" fill="#231E2B"/>
<rect x="330.295" y="12.2242" width="6" height="12" transform="rotate(-90 330.295 12.2242)" fill="#231E2B"/>
<rect x="336.295" y="18.2242" width="6" height="42" transform="rotate(-90 336.295 18.2242)" fill="#231E2B"/>
<rect x="336.295" y="30.2242" width="6" height="42" transform="rotate(-90 336.295 30.2242)" fill="#AC5603"/>
<rect x="234.295" y="18.2242" width="6" height="78" transform="rotate(-90 234.295 18.2242)" fill="#231E2B"/>
<rect x="234.295" y="30.2242" width="6" height="78" transform="rotate(-90 234.295 30.2242)" fill="#AC5603"/>
<rect x="234.295" y="84.2242" width="6" height="18" transform="rotate(-90 234.295 84.2242)" fill="#231E2B"/>
<rect x="294.295" y="84.2242" width="6" height="18" transform="rotate(-90 294.295 84.2242)" fill="#231E2B"/>
<rect x="294.295" y="114.224" width="6" height="18" transform="rotate(-90 294.295 114.224)" fill="#231E2B"/>
<rect x="336.295" y="84.2242" width="6" height="36.1252" transform="rotate(-90 336.295 84.2242)" fill="#231E2B"/>
<rect x="336.295" y="114.224" width="6" height="18.1252" transform="rotate(-90 336.295 114.224)" fill="#231E2B"/>
<rect x="258.295" y="138.224" width="6" height="30" transform="rotate(-90 258.295 138.224)" fill="#231E2B"/>
<rect x="252.295" y="132.224" width="6" height="6" transform="rotate(-90 252.295 132.224)" fill="#231E2B"/>
<rect x="288.295" y="132.224" width="6" height="6" transform="rotate(-90 288.295 132.224)" fill="#231E2B"/>
<rect x="252.295" y="78.2242" width="6" height="6" transform="rotate(-90 252.295 78.2242)" fill="#231E2B"/>
<rect x="258.295" y="90.2242" width="6" height="6" transform="rotate(-90 258.295 90.2242)" fill="#231E2B"/>
<rect x="282.295" y="90.2242" width="6" height="6" transform="rotate(-90 282.295 90.2242)" fill="#231E2B"/>
<rect x="270.295" y="114.224" width="18" height="6" transform="rotate(-90 270.295 114.224)" fill="#231E2B"/>
<rect x="288.295" y="78.2242" width="6" height="6" transform="rotate(-90 288.295 78.2242)" fill="#231E2B"/>
<rect x="234.295" y="114.224" width="6" height="18" transform="rotate(-90 234.295 114.224)" fill="#231E2B"/>
<rect x="264.295" y="78.2242" width="6" height="18" transform="rotate(-90 264.295 78.2242)" fill="#231E2B"/>
<rect x="294.295" y="84.2242" width="6" height="42" fill="#231E2B"/>
<rect x="306.295" y="114.224" width="6" height="30" fill="#231E2B"/>
<rect x="246.295" y="84.2242" width="6" height="42" fill="#231E2B"/>
<rect x="234.295" y="114.224" width="6" height="30" fill="#231E2B"/>
<rect x="372.42" y="120.224" width="6" height="30" transform="rotate(-90 372.42 120.224)" fill="#231E2B"/>
<rect x="312" y="120.224" width="6" height="30.2947" transform="rotate(-90 312 120.224)" fill="#231E2B"/>
<rect x="354.42" y="114.224" width="6" height="24" transform="rotate(-90 354.42 114.224)" fill="#231E2B"/>
<rect x="504.42" y="48.2242" width="6" height="18" transform="rotate(-90 504.42 48.2242)" fill="#AC5603"/>
<rect x="372.42" y="12.2242" width="6" height="12" transform="rotate(-90 372.42 12.2242)" fill="#231E2B"/>
<rect x="384.42" y="6.22424" width="6" height="12" transform="rotate(-90 384.42 6.22424)" fill="#231E2B"/>
<rect x="396.42" y="12.2242" width="6" height="12" transform="rotate(-90 396.42 12.2242)" fill="#231E2B"/>
<rect x="474.42" y="12.2242" width="6" height="12" transform="rotate(-90 474.42 12.2242)" fill="#231E2B"/>
<rect x="486.42" y="6.22424" width="6" height="12" transform="rotate(-90 486.42 6.22424)" fill="#231E2B"/>
<rect x="498.42" y="12.2242" width="6" height="12" transform="rotate(-90 498.42 12.2242)" fill="#231E2B"/>
<rect x="504.42" y="18.2242" width="6" height="12" transform="rotate(-90 504.42 18.2242)" fill="#231E2B"/>
<rect x="504.42" y="30.2242" width="6" height="18" transform="rotate(-90 504.42 30.2242)" fill="#AC5603"/>
<rect x="402.42" y="18.2242" width="6" height="78" transform="rotate(-90 402.42 18.2242)" fill="#231E2B"/>
<rect x="402.42" y="30.2242" width="6" height="78" transform="rotate(-90 402.42 30.2242)" fill="#AC5603"/>
<rect x="402.42" y="84.2242" width="6" height="18" transform="rotate(-90 402.42 84.2242)" fill="#231E2B"/>
<rect x="462.42" y="84.2242" width="6" height="18" transform="rotate(-90 462.42 84.2242)" fill="#231E2B"/>
<rect x="462.42" y="114.224" width="6" height="18" transform="rotate(-90 462.42 114.224)" fill="#231E2B"/>
<rect x="504.42" y="84.2242" width="6" height="18" transform="rotate(-90 504.42 84.2242)" fill="#231E2B"/>
<rect x="504.42" y="114.224" width="6" height="18" transform="rotate(-90 504.42 114.224)" fill="#231E2B"/>
<rect x="426.42" y="138.224" width="6" height="30" transform="rotate(-90 426.42 138.224)" fill="#231E2B"/>
<rect x="420.42" y="132.224" width="6" height="6" transform="rotate(-90 420.42 132.224)" fill="#231E2B"/>
<rect x="456.42" y="132.224" width="6" height="6" transform="rotate(-90 456.42 132.224)" fill="#231E2B"/>
<rect x="420.42" y="78.2242" width="6" height="6" transform="rotate(-90 420.42 78.2242)" fill="#231E2B"/>
<rect x="426.42" y="90.2242" width="6" height="6" transform="rotate(-90 426.42 90.2242)" fill="#231E2B"/>
<rect x="450.42" y="90.2242" width="6" height="6" transform="rotate(-90 450.42 90.2242)" fill="#231E2B"/>
<rect x="438.42" y="114.224" width="18" height="6" transform="rotate(-90 438.42 114.224)" fill="#231E2B"/>
<rect x="456.42" y="78.2242" width="6" height="6" transform="rotate(-90 456.42 78.2242)" fill="#231E2B"/>
<rect x="402.42" y="114.224" width="6" height="18" transform="rotate(-90 402.42 114.224)" fill="#231E2B"/>
<rect x="432.42" y="78.2242" width="6" height="18" transform="rotate(-90 432.42 78.2242)" fill="#231E2B"/>
<rect x="462.42" y="84.2242" width="6" height="42" fill="#231E2B"/>
<rect x="474.42" y="120.224" width="6" height="42" transform="rotate(-90 474.42 120.224)" fill="#231E2B"/>
<rect x="474.42" y="114.224" width="6" height="30" fill="#231E2B"/>
<rect x="510.42" y="114.224" width="6" height="30" fill="#231E2B"/>
<rect x="414.42" y="84.2242" width="6" height="42" fill="#231E2B"/>
<rect x="402.42" y="114.224" width="6" height="30" fill="#231E2B"/>
<rect x="36.2947" y="120.224" width="30" height="6" fill="#693103"/>
<rect x="480.42" y="120.224" width="30" height="6" fill="#693103"/>
<rect x="174.295" y="114.224" width="30" height="6" fill="#693103"/>
<rect x="342.295" y="114.224" width="30" height="6" fill="#693103"/>
<rect x="144.295" y="120.224" width="53.7053" height="6" fill="#693103"/>
<rect x="36.2947" y="126.224" width="18" height="6" fill="#693103"/>
<rect x="312.295" y="120.224" width="53.7053" height="6" fill="#693103"/>
<rect x="480.42" y="126.224" width="18" height="6" fill="#693103"/>
<rect x="72" y="114.224" width="6.29468" height="12" fill="#693103"/>
<rect x="132.295" y="114.224" width="6.29468" height="6" fill="#693103"/>
<rect x="78.1475" y="126.224" width="6.29468" height="6" fill="#693103"/>
<rect x="240.295" y="114.224" width="6.29468" height="12" fill="#693103"/>
<rect x="408.442" y="114.224" width="6.29468" height="12" fill="#693103"/>
<rect x="300" y="114.224" width="6.29468" height="6" fill="#693103"/>
<rect x="468.272" y="114.224" width="6.29468" height="6" fill="#693103"/>
<rect x="246.442" y="126.224" width="6.29468" height="6" fill="#693103"/>
<rect x="414.737" y="126.224" width="6.29468" height="6" fill="#693103"/>
<rect x="36.2947" y="18.2242" width="6" height="90" fill="#934200"/>
<rect x="66.2947" y="18.2242" width="6" height="90" fill="#934200"/>
<rect x="138.295" y="18.2242" width="6" height="90" fill="#934200"/>
<rect x="168.295" y="18.2242" width="6" height="90" fill="#934200"/>
<rect x="204.295" y="18.2242" width="6" height="90" fill="#934200"/>
<rect x="234.295" y="18.2242" width="6" height="90" fill="#934200"/>
<rect x="306.295" y="18.2242" width="6" height="90" fill="#934200"/>
<rect x="336.295" y="18.2242" width="6" height="90" fill="#934200"/>
<rect x="372.42" y="18.2242" width="6" height="90" fill="#934200"/>
<rect x="402.42" y="18.2242" width="6" height="90" fill="#934200"/>
<rect x="474.42" y="18.2242" width="6" height="90" fill="#934200"/>
<rect x="504.42" y="18.2242" width="6" height="90" fill="#934200"/>
<rect width="6" height="78" transform="matrix(-1 0 0 1 522.42 18.2242)" fill="#231E2B"/>
</svg>
