<svg width="1547" height="358" viewBox="0 0 1547 358" fill="none" xmlns="http://www.w3.org/2000/svg">
<g clip-path="url(#clip0_274_871)">
<path d="M524.6 32.2V27V21.8H514.2V12.9H499.3V17.7H494.8V7.7H490.3V1H475.4V9.9H470.9V17.7V19.9V26.9H450.2V32.1H441.3V26.9H425.7V32.9H428.7V37.4H529.5V32.2H524.6Z" fill="#A8E7F4"/>
<path d="M503.9 37.1V32.2H509.1V27.1V21.9H498.7V27.1H493.5V31.5V32.2V37.1H467.6V32.2H472.8V27.1H478V21.9H472.8V17.2V11.8H480.2V6.50001V1.10001H475V6.50001H469.8V11.8H463.8V17.2H460.1V21.9H451.9V27.1H462.3V31.5H457.1V37.1H436.4V31.5H431.2V27.1H426V31.5H420.8V37.1H415.6V42.6H529.8V37.1H503.9Z" fill="#2FBABB"/>
<path d="M446.8 27.1H452V32.3H446.8V27.1Z" fill="#2FBABB"/>
<path d="M1445.3 345.9V340.7V335.5H1434.9V326.6H1420V331.4H1415.5V321.4H1411V314.7H1396.1V323.6H1391.6V331.4V333.6V340.6H1371V345.8H1362.1V340.6H1346.5V346.6H1349.5V351.1H1450.3V345.9H1445.3Z" fill="#A8E7F4"/>
<path d="M1424.6 350.7V345.8H1429.8V340.7V335.5H1419.4V340.7H1414.2V345.1V345.8V350.7H1388.3V345.8H1393.5V340.7H1398.7V335.5H1393.5V330.8V325.4H1400.9V320.1V314.7H1395.7V320.1H1390.5V325.4H1384.5V330.8H1380.8V335.5H1372.6V340.7H1383V345.1H1377.8V350.7H1357.1V345.1H1351.9V340.7H1346.7V345.1H1341.5V350.7H1336.3V356.2H1450.5V350.7H1424.6Z" fill="#2FBABB"/>
<path d="M1367.5 340.8H1372.7V346H1367.5V340.8Z" fill="#2FBABB"/>
<path d="M188.4 161.3H235V167H188.4V161.3Z" fill="#A8E7F4"/>
<path d="M213.4 155.6V151H208.8V146.4H203.1V140.7H191.7V146.4H184.9V157.8H188.4V161.2H230.5V155.5H213.4V155.6Z" fill="#A8E7F4"/>
<path d="M198.6 160.7V155.6H188.4V151H193V140.8H187.2V146.5H182.6V155.6V157.9V161.3H187.2V167.1H235V160.8H198.6V160.7Z" fill="#2FBABB"/>
<path d="M1215 231.4H1261.6V237.1H1215V231.4Z" fill="#A8E7F4"/>
<path d="M1240 225.7V221.1H1235.4V216.5H1229.7V211H1218.3V216.7H1211.5V228H1215V231.4H1257.1V225.7H1240Z" fill="#A8E7F4"/>
<path d="M1225.2 230.9V225.8H1215V221.2H1219.6V211H1213.8V216.7H1209.2V225.8V228.1V231.5H1213.8V237.3H1261.6V231H1225.2V230.9Z" fill="#2FBABB"/>
<path d="M1075.4 62.8H1028.8V57.1H1075.4V62.8Z" fill="#A8E7F4"/>
<path d="M1033.4 51.5V57.2H1075.5V53.8H1079V42.4H1072.2V36.7H1060.8V42.4H1055.1V47H1050.5V51.6H1033.4V51.5Z" fill="#A8E7F4"/>
<path d="M1028.8 56.6V62.9H1076.6V57.1H1081.2V53.7V51.4V42.3H1076.6V36.6H1070.8V46.8H1075.4V51.4H1065.2V56.5H1028.8V56.6Z" fill="#2FBABB"/>
<path d="M349 190.4V184.5H337.4V190.4V191.5V197.3H353.7V190.4H349Z" fill="#A8E7F4"/>
<path d="M337.4 190.4H331.5V196.2V197.3V202H353.8V196.2H337.5L337.4 190.4Z" fill="#2FBABB"/>
<path d="M927.5 29.5V23.6H915.9V29.5V30.6V36.4H932.2V29.5H927.5Z" fill="#A8E7F4"/>
<path d="M915.9 29.5H910V35.3V36.4V41.1H932.3V35.3H916V29.5H915.9Z" fill="#2FBABB"/>
<path d="M130.2 336.7V332.1H124.9V327.6H119.8V322.3H110V307.3H100.2V302H95V296.9H87.5V302H86.7V307.3H75.6V327.6H59.8V316.3H45.7V327.6H35.2V317.8H29.9V312.5H24.6V307.2H14.2V312.5V317.8H6.8V327.6H4.5V332.9H5.3V336.8V337.3V342.6H140V336.8L130.2 336.7Z" fill="#A8E7F4"/>
<path d="M120.5 342.2V336.6H115.2V342.2H104.7V336.6H100.2V333.5H95V328H100.3V322.3H95V328H89.7V333.6V336.7V338.5V342.3H54.6V337.3H50.1V332.2H45.7V327.5H50.1V321.9H54.6V316.4H45V321.9H40.5V326.9V327.4V332.1V337.2H45V342.2H20.2V337.2H14.9V332.1H9.6V327.2V321.8V318.5H14.1V312.6H5.3V318H0V321.9V327.3V332.2V332.7V337.3H5.3V342.6V347.9H145.2V342.4H120.5V342.2Z" fill="#2FBABB"/>
<path d="M84.5 296.9V302H75.6V307.3H70.3V312.8V317.8H65V323.1V328.4H70.3V333.7H75.6V328.4V323V318.2H80.9V312.7H84.5V307.9H89.8V302.9V302V296.9H84.5Z" fill="#2FBABB"/>
<path d="M1412.1 154.9V160.5H1541.9V155.4V154.9V151.2H1542.6V146.1H1540.4V136.7H1533.3V131.6V126.5H1523.2V131.6H1518.1V136.7H1513V146.1H1503V135.2H1489.4V146.1H1474.2V126.6H1463.5V121.5H1462.8V116.5H1455.6V121.5H1450.5V126.6H1441.1V141H1431.7V146.1H1426.7V150.4H1421.6V154.8H1412.1V154.9Z" fill="#A8E7F4"/>
<path d="M1407.1 160.3V165.6H1542V160.5V155.4H1547.1V151V150.5V145.7V140.5V136.8H1542V131.6H1533.4V137.3H1537.7V140.5V145.7V150.5H1532.6V155.5H1527.5V160.4H1503.6V155.5H1507.9V150.5V146V145.5V140.6H1503.6V135.3H1494.3V140.6H1498.6V146H1502.8V150.5H1498.6V155.5H1494.3V160.4H1460.4V156.8V155V152V146.6H1455.3V141H1450.2V146.5H1455.3V151.9H1450.2V154.9H1445.9V160.3H1435.8V154.9H1430.7V160.3H1407.1Z" fill="#2FBABB"/>
<path d="M1460.5 116.5V121.5V122.3V127.2H1465.6V131.9H1469.1V137.2H1474.2V141.9V147V152.1H1479.3V147H1484.4V141.9V136.8H1479.3V131.9V126.6H1474.2V121.5H1465.6V116.5H1460.5Z" fill="#2FBABB"/>
</g>
<defs>
<clipPath id="clip0_274_871">
<rect width="1547" height="358" fill="white"/>
</clipPath>
</defs>
</svg>
