<svg width="257" height="50" viewBox="0 0 257 50" fill="none" xmlns="http://www.w3.org/2000/svg">
<path d="M35.2439 20.0203V0.667342C35.2439 0.298779 34.9451 0 34.5765 0C34.208 0 33.9092 0.298777 33.9092 0.66734V20.0203C33.9092 20.3888 34.208 20.6876 34.5765 20.6876C34.9451 20.6876 35.2439 20.3888 35.2439 20.0203Z" fill="#629FFC"/>
<path d="M28.2293 38.7059L22.5647 28.0887V18.4337H26.1501V23.2612H31.3563V18.4337H34.7125V38.6081L28.2293 38.7059Z" fill="#629FFC"/>
<path d="M41.1631 38.7059L46.8277 28.0887V18.4337H43.2259V23.2612H38.0361V18.4337H34.6799V38.6081L41.1631 38.7059Z" fill="#A9CBFF"/>
<path d="M34.7124 1.03008C36.1204 1.03008 37.5283 3.77 39.1655 4.17773C40.8027 4.58546 41.5721 3.26442 43.8969 3.52537C45.9761 3.77 45.7797 6.60778 49.3159 6.86873C48.0226 7.78204 46.2544 9.03784 43.504 8.7932C41.4248 8.6138 40.8354 7.24384 38.4779 7.73311C36.1204 8.20607 35.5965 9.6902 34.7288 9.93484C34.7124 5.48246 34.7124 1.03008 34.7124 1.03008Z" fill="#629FFC"/>
<path d="M16.6337 31.3864L5.56577 28.1424V27.7607L16.6337 24.5167V21.3999L2.44894 25.7571V30.1461L16.6337 34.5033V31.3864ZM115.738 38.447C118.123 38.447 119.522 37.2066 120.222 35.5846H120.572V38.129H124.007V15.2298H120.476V24.5485H120.127C119.395 23.0219 118.028 21.8769 115.674 21.8769H115.579C112.176 21.8769 110.013 24.6439 110.013 29.3192V31.1002C110.013 35.8072 112.08 38.447 115.674 38.447H115.738ZM116.819 35.1712C114.593 35.1712 113.511 33.6764 113.511 30.8776V29.4464C113.511 26.6476 114.593 25.1528 116.819 25.1528H116.946C119.268 25.1528 120.476 26.6794 120.476 29.4464V30.8776C120.476 33.7082 119.268 35.1712 116.946 35.1712H116.819ZM137.575 35.0121C136.716 35.0121 136.525 34.7577 136.525 33.9944V15.2298H127.334V18.3466H132.995V33.6127C132.995 36.2525 134.681 38.129 137.543 38.129H143.172V35.0121H137.575ZM208.703 38.447C211.089 38.447 212.488 37.2066 213.188 35.5846H213.538V38.129H216.972V15.2298H213.442V24.5485H213.092C212.361 23.0219 210.993 21.8769 208.64 21.8769H208.544C205.141 21.8769 202.978 24.6439 202.978 29.3192V31.1002C202.978 35.8072 205.046 38.447 208.64 38.447H208.703ZM209.785 35.1712C207.558 35.1712 206.477 33.6764 206.477 30.8776V29.4464C206.477 26.6476 207.558 25.1528 209.785 25.1528H209.912C212.234 25.1528 213.442 26.6794 213.442 29.4464V30.8776C213.442 33.7082 212.234 35.1712 209.912 35.1712H209.785ZM230.54 35.0121C229.682 35.0121 229.491 34.7577 229.491 33.9944V15.2298H220.299V18.3466H225.961V33.6127C225.961 36.2525 227.646 38.129 230.509 38.129H236.138V35.0121H230.54ZM254.381 30.1461V25.7571L240.197 21.3999V24.5167L251.264 27.7607V28.1424L240.197 31.3864V34.5033L254.381 30.1461Z" fill="#629FFC"/>
<path d="M65.4604 26.743C67.4004 26.0751 68.4818 24.6439 68.4818 22.354V22.0996C68.4818 18.5375 66.0964 16.4384 61.8665 16.4384H54.7105V38.129H62.6616C66.8279 38.129 69.2769 36.0299 69.2769 32.2452V32.0225C69.2769 29.2874 67.8457 27.6971 65.4604 27.1247V26.743ZM61.9301 19.7142C64.22 19.7142 64.9833 20.4775 64.9833 22.4494V22.5766C64.9833 24.6757 64.22 25.5026 61.9301 25.5026H58.1772V19.7142H61.9301ZM65.7784 31.8635C65.7784 34.0262 64.9833 34.8531 62.7252 34.8531H58.1772V28.7467H62.7252C64.9833 28.7467 65.7784 29.5736 65.7784 31.7045V31.8635ZM83.2902 22.195V31.291C83.2902 33.6446 82.018 35.1712 79.6009 35.1712H79.4737C77.7562 35.1712 76.6113 34.2488 76.6113 31.9589V22.195H73.081V32.2452C73.081 36.2525 75.2119 38.447 78.3605 38.447H78.4877C80.6504 38.447 82.2088 37.4293 82.9403 35.7754H83.2902V38.129H86.8205V22.195H83.2902ZM96.9854 14.6891V19.3644H101.883V14.6891H96.9854ZM102.201 35.0121C101.374 35.0121 101.184 34.7577 101.184 33.9944V22.195H91.9286V25.3436H97.6533V33.6127C97.6533 36.2525 99.339 38.129 102.201 38.129H106.94V35.0121H102.201ZM158.267 30.4005V30.4959C158.267 34.1216 156.709 35.2666 154.355 35.2666H154.196C151.588 35.2666 150.38 34.1216 150.38 30.4959V24.0714C150.38 20.4457 151.588 19.3008 154.26 19.3008H154.419C157.058 19.3008 158.267 20.4457 158.267 24.0714H161.797C161.797 18.7601 158.744 16.1203 154.419 16.1203H154.26C149.902 16.1203 146.849 18.7601 146.849 24.0714V30.4959C146.849 35.8072 149.425 38.447 153.337 38.447H153.496C155.977 38.447 157.376 37.5247 158.14 35.6164H158.49V38.129H161.797V27.1565H154.737V30.4005H158.267ZM176.256 22.195V31.291C176.256 33.6446 174.984 35.1712 172.567 35.1712H172.439C170.722 35.1712 169.577 34.2488 169.577 31.9589V22.195H166.047V32.2452C166.047 36.2525 168.178 38.447 171.326 38.447H171.453C173.616 38.447 175.175 37.4293 175.906 35.7754H176.256V38.129H179.786V22.195H176.256ZM189.951 14.6891V19.3644H194.849V14.6891H189.951ZM195.167 35.0121C194.34 35.0121 194.149 34.7577 194.149 33.9944V22.195H184.894V25.3436H190.619V33.6127C190.619 36.2525 192.305 38.129 195.167 38.129H199.906V35.0121H195.167Z" fill="black"/>
</svg>
